<svg width="18" height="18" viewBox="0 0 18 18" fill="none" xmlns="http://www.w3.org/2000/svg">
<g clip-path="url(#clip0_61_967)">
<path d="M6 9C6 9.55228 5.55228 10 5 10C4.44772 10 4 9.55228 4 9C4 8.44772 4.44772 8 5 8C5.55228 8 6 8.44772 6 9Z" fill="white"/>
<path d="M10 9C10 9.55228 9.55228 10 9 10C8.44772 10 8 9.55228 8 9C8 8.44772 8.44772 8 9 8C9.55228 8 10 8.44772 10 9Z" fill="white"/>
<path d="M14 9C14 9.55228 13.5523 10 13 10C12.4477 10 12 9.55228 12 9C12 8.44772 12.4477 8 13 8C13.5523 8 14 8.44772 14 9Z" fill="white"/>
</g>
<defs>
<clipPath id="clip0_61_967">
<rect width="18" height="18" fill="white"/>
</clipPath>
</defs>
</svg>
